<svg xmlns="http://www.w3.org/2000/svg" viewBox="0 0 64 64">
  <rect width="64" height="64" rx="10" fill="#FBF8F4"/>
  <g transform="translate(32 32)" fill="#812933">
    <path d="M0 -26 C 2 -10, 2 -10, 8 -8 L 18.4 -18.4 C 10 -2, 10 -2, 26 0 C 10 2, 10 2, 18.4 18.4 L 8 8 C 2 10, 2 10, 0 26 C -2 10, -2 10, -8 8 L -18.4 18.4 C -10 2, -10 2, -26 0 C -10 -2, -10 -2, -18.4 -18.4 L -8 -8 C -2 -10, -2 -10, 0 -26 Z" />
    <path d="M0 -6 L 4.2 -4.2 L 6 0 L 4.2 4.2 L 0 6 L -4.2 4.2 L -6 0 L -4.2 -4.2 Z" fill="#FBF8F4" />
  </g>
</svg>
